<?xml version="1.0" encoding="utf-8"?>
<svg version="1.1" id="Layer_5" xmlns="http://www.w3.org/2000/svg" xmlns:xlink="http://www.w3.org/1999/xlink" x="0px" y="0px"
	 viewBox="0 0 3000 3000" style="enable-background:new 0 0 3000 3000;" xml:space="preserve">
<style type="text/css">
	.st0{fill:#1E91C9;}
</style>
<g>
	<path class="st0" d="M1127.43,1436.71c-6.9-30.79-17.44-61.03-31.67-89.91l7.93-16.25l-10.96,10.23
		c-2.43-4.72-4.95-9.41-7.58-14.05l15.01-28.01l-19.96,19.53c-2.54-4.23-5.16-8.42-7.87-12.57l15.7-33.23l-23.11,22.28
		c-3.14-4.48-6.38-8.9-9.72-13.27l21.72-41.86l-31.05,30.14c-4.27-5.15-8.7-10.21-13.28-15.18l27.15-51.33l-38.52,39.47
		c-3.95-3.95-8.02-7.83-12.18-11.64l28.97-56.63l-43.5,43.95c-5.69-4.72-11.55-9.32-17.58-13.79l35.31-65.78l-53.68,52.95
		c-9.59-6.31-19.56-12.31-29.94-17.97l38.14-72.88l-61.7,60.98c-8.24-3.86-16.71-7.52-25.4-10.95l37.84-74.28l-67.37,63.75
		c-17.87-5.72-36.58-10.59-56.17-14.48l87.54-169.39l-126.19,126.19l70.48-137.56l-514.99,517.26l-2.27,25.01l18.19,17.05
		l286.48-59.11c20.98-18.95,76.19-39.91,137.11-32.91c4.41-13.88,23.67-62.06,80.03-67.89c0,0-48.16,13.23-66.83,69.84
		c8.45,1.53,16.96,3.62,25.47,6.37c7.67-12.42,32.35-46.27,73.19-46.27c0,0-34.86,6.57-61.69,50.37c6.36,2.5,12.7,5.38,18.98,8.67
		c9.26-9.69,35.64-34.33,65.45-35.55c0,0-33.92,13.93-53.56,42.32c6.93,4.27,13.77,9.09,20.48,14.48
		c9.54-9.33,29.35-25.12,55.81-27.24c0,0-28.5,10.41-47.28,34.5c4.47,4,8.86,8.29,13.18,12.87c0.01,0.01,0.01,0.01,0.02,0.02
		c10.36-6.74,27.69-15.84,46.21-16.32c0,0-24.55,8.18-38.93,24.55c4.17,5.03,8.04,10.27,11.6,15.69
		c8.34-6.03,24.96-15.91,43.24-14.85c0,0-25.13,7.75-38.57,22.36c0,0,0,0,0,0.01c2.81,4.76,5.39,9.62,7.75,14.6
		c8.94-4.26,20.32-8.52,32.09-9.81c0,0-16.13,6.8-29.43,15.7c2.24,5.14,4.25,10.39,6.02,15.72c6.88-2.62,14.56-4.79,22.4-5.65
		c0,0-10.09,4.25-20.88,10.43c30.85,100.99-24.09,231.08-139.29,258.37c-140.24,33.22-216-80.72-216-80.72
		c-99.29-31.45-181.14-119.37-181.14-119.37s-0.62,117.03,101.56,223.96c97.77,102.32,349.01,162.57,540-27.28
		C1104.65,1718.4,1157.1,1569.18,1127.43,1436.71z M577.21,1376.79c-37.89,34.11-100.04,3.79-100.04,3.79l104.59-106.86
		C581.76,1273.72,619.47,1338.76,577.21,1376.79z"/>
	<polygon class="st0" points="1296.45,1366.94 1296.45,1365.23 1415.82,1365.23 1415.82,1292.47 1337.73,1292.47 1296.45,1292.47 
		1296.45,1240.75 1415.82,1240.75 1415.82,1167.99 1337.73,1167.99 1296.45,1167.99 1296.45,1167.99 1211.19,1167.99 
		1211.19,1489.72 1296.45,1489.72 	"/>
	<polygon class="st0" points="1513.59,1366.94 1513.59,1167.99 1428.33,1167.99 1428.33,1489.72 1513.59,1489.72 	"/>
	<path class="st0" d="M2017.72,1496.28c0,0,136.29,2.53,136.29-128.59v-198.95h-85.26v195.92c0,55.33-54.57,51.79-54.57,51.79
		c-57.09,0-53.81-49.52-53.81-49.52v-198.95h-85.26v220.17C1875.11,1388.16,1879.78,1496.28,2017.72,1496.28z"/>
	<path class="st0" d="M2252.54,1372.11l87.54,117.61h99.28l-95.49-131.87c56.84-21.98,58.36-89.43,58.36-89.43
		c0-55.21-33.44-80.15-61.65-91.36c-15.43-6.14-31.96-9.06-48.57-9.06h-39.47h-85.26v321.73h85.26V1372.11z M2269.59,1237.34
		c47.75,0,44.72,31.83,44.72,31.83c0,40.17-46.99,37.14-46.99,37.14h-14.78v-68.97H2269.59z"/>
	<polygon class="st0" points="2655.36,1240.75 2655.36,1167.99 2577.27,1167.99 2535.99,1167.99 2535.99,1167.99 2450.73,1167.99 
		2450.73,1489.72 2535.99,1489.72 2535.99,1489.72 2655.36,1489.72 2655.36,1416.96 2577.27,1416.96 2535.99,1416.96 
		2535.99,1366.94 2535.99,1365.23 2655.36,1365.23 2655.36,1292.47 2577.27,1292.47 2535.99,1292.47 2535.99,1240.75 	"/>
	<polygon class="st0" points="2414.54,1530.07 2329.27,1530.07 2329.27,1530.07 2253.67,1530.07 2253.67,1607.95 2329.27,1607.95 
		2329.27,1851.8 2414.54,1851.8 2414.54,1729.02 2414.54,1607.95 2493.55,1607.95 2493.55,1530.07 2414.54,1530.07 	"/>
	<polygon class="st0" points="1551.67,1530.07 1551.67,1530.07 1466.41,1530.07 1466.41,1851.8 1551.67,1851.8 1551.67,1851.8 
		1671.04,1851.8 1671.04,1779.04 1592.95,1779.04 1551.67,1779.04 1551.67,1729.02 1551.67,1727.32 1671.04,1727.32 
		1671.04,1654.56 1592.95,1654.56 1551.67,1654.56 1551.67,1602.83 1671.04,1602.83 1671.04,1530.07 1592.95,1530.07 	"/>
	<path class="st0" d="M1839.11,1245.67l-0.7,0.57c0.19,0.34,0.39,0.67,0.58,1.01L1839.11,1245.67z"/>
	<path class="st0" d="M1697,1496.54c83.04-0.21,141.85-41.68,165.01-113.74c3.55-11.06,4.63-34.05,4.63-34.05v-40.42h-170.27v73.26
		h76.8c0,0-18.19,36.38-64.17,36.38s-73.8-22.69-88.93-54.06c-13.64-28.29-10.71-99.38,64.17-118.23
		c70.23-17.68,104.08,49.01,104.08,49.01l59.18-48.44c-27.29-48.88-79.78-81.67-150.5-81.67c-94.81,0-171.66,74.31-171.66,165.98
		C1525.34,1422.23,1602.19,1496.78,1697,1496.54z"/>
	<path class="st0" d="M1399.78,1674.14c41.43-32.84,23.24-86.91,23.24-86.91c-20.72-59.12-89.43-57.16-89.43-57.16h-39.98h-85.26
		v321.73h85.26c100.48,7.39,158.72-25.07,163.77-90.76C1462.43,1695.36,1399.78,1674.14,1399.78,1674.14z M1308.33,1594.81
		c34.36,0,33.35,26.27,33.35,26.27c0,25.77-34.36,27.28-34.36,27.28h-13.71v-53.44C1297.7,1594.85,1302.55,1594.81,1308.33,1594.81z
		 M1314.89,1787.82h-21.28v-58.8v-13.81c8.92,0.41,22.64,0.86,39.98,0.86c31.83,0,34.36,32.84,34.36,32.84
		C1367.95,1794.89,1314.89,1787.82,1314.89,1787.82z"/>
	<path class="st0" d="M1819.29,1530.07l-140.85,321.73h88.67l26.29-60.82h122.66l28.39,60.82h86.4l-144.26-321.73H1819.29z
		 M1823.37,1721.63l28.99-67.07l31.31,67.07H1823.37z"/>
	<path class="st0" d="M2191.53,1665.55c-31.83-14.4-76.55-29.56-72-53.05s39.41-18.19,78.06,4.55l40.93-61.39
		c0,0-86.61-59.7-159.92-14.4c-67.45,41.68-51.72,130.73-7.58,153.85c47.75,25.01,97.01,28.8,96.25,57.6
		c-0.76,28.8-43.96,30.32-66.69,13.64c-22.74-16.67-25.77-23.49-25.77-23.49l-53.05,58.36c0,0,42.44,58.36,116.72,53.81
		s112.17-48.13,115.2-98.72C2256.71,1705.72,2223.36,1679.95,2191.53,1665.55z"/>
</g>
</svg>
